<?xml version="1.0" standalone="no"?>
<!DOCTYPE svg PUBLIC "-//W3C//DTD SVG 20010904//EN"
 "http://www.w3.org/TR/2001/REC-SVG-20010904/DTD/svg10.dtd">
<svg version="1.0" xmlns="http://www.w3.org/2000/svg"
 width="820.000000pt" height="428.000000pt" viewBox="0 0 820.000000 428.000000"
 preserveAspectRatio="xMidYMid meet">

<g transform="translate(0.000000,428.000000) scale(0.100000,-0.100000)"
fill="#000000" stroke="none">
<path d="M3877 4194 c-3 -3 -25 -8 -49 -10 -45 -4 -198 -75 -220 -102 -11 -13
-11 -14 2 -7 8 4 5 -3 -8 -17 -12 -13 -20 -28 -17 -31 3 -4 2 -5 -2 -2 -3 3
-12 0 -20 -6 -8 -7 -13 -8 -13 -1 0 5 10 17 23 26 12 9 15 14 7 10 -28 -13
-49 -36 -44 -49 3 -7 0 -16 -7 -21 -8 -5 -10 -3 -4 7 4 8 -4 1 -18 -16 -33
-39 -63 -90 -48 -81 6 4 3 -7 -9 -26 -21 -35 -26 -53 -11 -44 5 3 3 -11 -4
-32 -8 -21 -16 -67 -18 -102 -3 -36 -14 -96 -25 -135 -32 -109 -44 -189 -33
-216 9 -23 9 -23 9 6 -1 32 19 135 27 143 14 14 3 -114 -15 -169 -19 -61 -19
-88 1 -59 6 10 9 0 7 -35 0 -28 5 -61 12 -74 17 -33 6 -108 -26 -167 -15 -27
-28 -69 -30 -93 l-3 -44 20 32 c10 17 19 39 19 47 0 20 31 74 42 74 12 0 29
47 34 95 8 60 14 55 14 -11 -1 -58 -22 -179 -34 -191 -6 -6 -2 27 10 85 3 16
1 23 -7 20 -22 -7 -41 -81 -44 -163 -1 -44 0 -70 2 -57 2 12 9 22 14 22 9 0
12 -39 9 -116 -1 -23 6 -66 14 -95 9 -30 12 -57 7 -62 -5 -5 -9 1 -9 15 -1 13
-12 57 -26 98 l-25 75 6 -55 c3 -30 10 -63 14 -72 13 -25 11 -31 -11 -25 -13
3 -20 0 -20 -8 0 -7 -3 -21 -7 -31 -4 -12 -3 -15 5 -10 7 4 12 2 12 -3 0 -6 6
-11 14 -11 8 0 17 -8 20 -17 6 -15 8 -15 16 -3 8 12 10 10 10 -8 0 -13 4 -20
10 -17 6 3 10 1 10 -5 0 -6 26 -38 58 -70 56 -57 59 -59 154 -81 67 -15 99
-27 103 -38 3 -9 30 -27 61 -40 31 -14 63 -35 71 -48 23 -34 36 -28 17 8 -15
30 -15 32 1 25 15 -5 16 -4 5 9 -25 30 -2 25 38 -8 23 -19 38 -38 34 -41 -3
-4 2 -4 12 0 13 5 23 1 32 -11 8 -10 14 -14 14 -8 0 23 -53 73 -96 92 -30 14
-44 26 -44 39 0 11 -7 25 -16 33 -16 13 -16 20 7 133 9 45 9 67 -1 95 -12 37
-70 114 -70 94 0 -7 4 -14 9 -17 9 -6 51 -90 51 -103 0 -4 -12 10 -26 31 -18
26 -29 34 -34 26 -5 -8 -16 -1 -33 22 -15 18 -23 34 -18 36 10 3 -4 93 -18
121 -6 11 -11 31 -11 45 0 14 -4 27 -9 30 -17 11 -11 93 9 111 17 16 19 15 35
-9 10 -14 21 -23 27 -20 5 3 12 -5 16 -17 6 -22 7 -21 12 11 6 32 7 30 14 -25
13 -111 17 -125 41 -152 20 -23 24 -25 25 -10 0 10 8 17 20 17 22 0 93 -31 98
-43 7 -15 82 -47 112 -47 44 0 89 26 90 52 0 4 -18 13 -40 19 -21 7 -37 16
-34 20 3 5 -2 9 -11 9 -9 0 -29 8 -43 18 -15 10 -48 29 -75 42 -26 13 -69 47
-97 75 -27 29 -52 50 -56 46 -4 -3 -4 2 0 13 3 10 2 24 -4 31 -7 9 -5 19 8 36
24 31 43 131 40 211 -1 35 2 70 6 77 9 13 58 12 154 -5 37 -6 112 22 112 43 0
7 7 13 15 13 9 0 43 9 76 20 65 22 78 20 80 -13 1 -20 2 -20 9 3 7 21 15 12
11 -12 -2 -15 48 -19 71 -7 14 7 18 14 10 17 -25 8 -11 17 27 17 22 0 42 3 45
6 12 11 10 52 -1 56 -8 3 -13 -5 -13 -21 0 -24 -2 -25 -57 -24 -32 1 -48 4
-35 6 12 2 32 18 45 35 12 18 29 32 37 32 25 0 35 87 16 135 -9 22 -16 51 -16
64 0 32 -10 57 -20 51 -5 -3 -4 -19 2 -36 13 -38 2 -52 -12 -15 -12 32 -30 26
-30 -10 0 -24 -14 -32 -24 -15 -3 5 -9 32 -12 61 -3 29 -12 70 -20 93 -17 49
-12 60 8 15 38 -85 39 -86 32 -48 -6 41 -20 84 -41 125 l-14 30 25 -30 c14
-16 23 -31 21 -33 -2 -3 1 -14 7 -26 7 -11 13 -27 14 -34 1 -8 5 -17 9 -20 7
-7 1 33 -10 71 -4 12 -24 42 -44 67 -62 77 -67 86 -21 45 25 -22 46 -43 48
-47 2 -5 9 -8 15 -8 18 0 -73 88 -130 126 -30 20 -50 41 -47 48 3 8 -19 26
-58 46 -35 19 -64 33 -66 32 -1 -1 -14 5 -28 14 -17 11 -49 18 -93 19 -37 1
-73 5 -79 9 -16 9 -78 17 -85 10z m-273 -248 c-21 -24 -43 -45 -48 -45 -6 -1
4 14 20 32 17 17 37 39 45 48 8 10 16 15 18 13 2 -2 -14 -24 -35 -48z m107
-92 c-12 -26 -24 -45 -27 -42 -3 3 5 26 17 52 29 59 37 52 10 -10z m42 31 c-3
-9 -8 -14 -10 -11 -3 3 -2 9 2 15 9 16 15 13 8 -4z m40 -68 c-9 -31 -20 -57
-25 -57 -4 0 -8 4 -8 10 0 12 43 111 46 107 2 -1 -5 -28 -13 -60z m113 21
c-19 -27 -21 -19 -4 18 7 14 14 21 16 15 2 -6 -4 -21 -12 -33z m-145 5 c-4
-15 -12 -28 -19 -31 -7 -2 -6 8 4 27 19 38 25 40 15 4z m637 2 c-3 -3 -9 2
-12 12 -6 14 -5 15 5 6 7 -7 10 -15 7 -18z m-677 -32 c-8 -27 -17 -41 -19 -31
-3 15 23 78 32 78 2 0 -4 -21 -13 -47z m-266 -75 c-4 -24 -11 -47 -16 -52 -12
-13 -11 -4 2 50 14 56 23 57 14 2z m346 9 c-10 -9 -11 -8 -5 6 3 10 9 15 12
12 3 -3 0 -11 -7 -18z m580 -104 c1 -58 -8 -81 -18 -45 -5 21 -6 21 -19 5 -12
-17 -13 -17 -14 -1 0 9 -4 19 -9 22 -4 3 -6 -7 -3 -22 l5 -27 -22 27 c-23 28
-20 54 4 44 10 -3 12 6 9 37 -4 41 -4 41 11 17 8 -14 14 -36 15 -49 0 -13 3
-21 7 -17 4 4 7 35 6 69 l-2 62 15 -33 c8 -19 15 -58 15 -89z m-616 97 c3 -5
1 -10 -4 -10 -6 0 -11 5 -11 10 0 6 2 10 4 10 3 0 8 -4 11 -10z m210 -57 c-9
-21 -23 -60 -32 -86 -19 -63 -26 -56 -13 12 5 29 7 63 4 76 -3 13 -1 26 5 29
7 5 8 1 4 -10 -11 -29 17 -5 29 24 8 20 12 23 15 10 2 -9 -3 -33 -12 -55z
m431 29 c0 -4 4 -26 8 -49 4 -23 4 -48 0 -55 -9 -14 -22 42 -23 96 -1 24 13
31 15 8z m-656 -7 c-7 -9 -15 -13 -17 -11 -7 7 7 26 19 26 6 0 6 -6 -2 -15z
m336 -21 c-3 -9 -8 -28 -11 -42 -4 -21 -1 -18 14 12 l19 39 -1 -50 c-1 -28 -8
-56 -14 -62 -10 -9 -13 -8 -13 4 0 8 -4 15 -10 15 -5 0 -10 -8 -10 -17 -1 -16
-2 -16 -10 -2 -10 18 18 119 33 119 5 0 6 -7 3 -16z m-259 -94 c1 -76 -1 -89
-13 -79 -16 13 -19 114 -4 124 6 3 10 15 10 26 0 10 1 19 3 19 2 0 4 -41 4
-90z m180 48 c-3 -8 -6 -5 -6 6 -1 11 2 17 5 13 3 -3 4 -12 1 -19z m147 -67
c-5 -12 -9 -8 -14 14 -3 17 -4 34 -2 39 8 15 23 -36 16 -53z m-351 -166 c18
-54 16 -72 -1 -28 -22 54 -39 149 -33 183 4 29 7 23 12 -35 4 -38 14 -92 22
-120z m317 43 c0 -5 -7 -8 -15 -8 -8 0 -15 -4 -15 -10 0 -5 5 -10 10 -10 6 0
9 -3 8 -7 -3 -10 46 -59 64 -65 7 -3 -18 -12 -57 -21 -44 -10 -73 -13 -79 -7
-7 7 -5 10 4 10 7 0 10 3 7 6 -4 4 -13 2 -20 -4 -10 -9 -18 -8 -33 3 -11 9
-13 13 -4 10 8 -3 28 -1 44 3 32 9 40 25 51 107 7 48 7 49 21 25 7 -14 13 -28
14 -32z m-523 20 c-3 -8 -6 -5 -6 6 -1 11 2 17 5 13 3 -3 4 -12 1 -19z m287
-175 c4 -13 4 -23 -1 -23 -8 0 -64 131 -63 147 1 10 55 -96 64 -124z m-297
-25 c-2 -24 -4 -5 -4 42 0 47 2 66 4 43 2 -24 2 -62 0 -85z m-180 20 c-3 -8
-6 -5 -6 6 -1 11 2 17 5 13 3 -3 4 -12 1 -19z m512 -108 c-1 -66 -14 -69 -15
-3 -1 41 2 60 7 52 5 -8 8 -30 8 -49z m-296 -137 c17 -52 25 -128 15 -138 -10
-10 -26 54 -31 123 -3 34 -4 62 -2 62 1 0 10 -21 18 -47z m-86 -35 c-3 -8 -6
-5 -6 6 -1 11 2 17 5 13 3 -3 4 -12 1 -19z m-6 -64 l-9 -39 -1 36 c-1 20 2 39
6 42 12 13 13 0 4 -39z m136 4 c-3 -8 -6 -5 -6 6 -1 11 2 17 5 13 3 -3 4 -12
1 -19z m46 -235 c15 -29 22 -55 18 -66 -6 -16 -9 -16 -18 -5 -21 27 -36 63
-39 95 -3 42 7 35 39 -24z m-190 -10 c4 -19 2 -33 -3 -33 -6 0 -10 17 -10 37
0 43 5 41 13 -4z m133 -8 c9 -13 20 -42 24 -62 8 -34 7 -36 -6 -19 -8 11 -14
25 -14 32 0 6 -7 17 -15 24 -14 11 -22 50 -10 50 2 0 12 -11 21 -25z m103 -20
c0 -18 -1 -17 -13 5 -8 14 -12 29 -9 33 8 12 23 -14 22 -38z m-202 -17 c-3 -8
-6 -5 -6 6 -1 11 2 17 5 13 3 -3 4 -12 1 -19z m96 -18 c3 -11 3 -20 1 -20 -2
0 -8 9 -14 20 -6 11 -7 20 -2 20 6 0 12 -9 15 -20z"/>
<path d="M4483 3887 c0 -18 53 -74 62 -65 3 2 -10 22 -28 43 -23 26 -34 33
-34 22z"/>
<path d="M4550 3765 c1 -5 19 -39 41 -75 29 -48 38 -57 33 -35 -4 17 -11 35
-16 41 -4 6 -6 18 -3 26 3 8 -2 21 -12 28 -15 12 -16 12 -5 0 6 -8 12 -19 12
-24 -1 -6 -12 3 -25 19 -14 17 -25 26 -25 20z"/>
<path d="M3361 3614 c0 -11 3 -14 6 -6 3 7 2 16 -1 19 -3 4 -6 -2 -5 -13z"/>
<path d="M3352 3570 c0 -14 2 -19 5 -12 2 6 2 18 0 25 -3 6 -5 1 -5 -13z"/>
<path d="M3336 3508 c-3 -13 -5 -32 -5 -43 1 -11 5 -2 10 19 10 42 6 62 -5 24z"/>
<path d="M4570 3499 c0 -5 5 -7 10 -4 6 3 10 8 10 11 0 2 -4 4 -10 4 -5 0 -10
-5 -10 -11z"/>
<path d="M4248 3069 c12 -12 97 -15 97 -4 0 6 -24 10 -52 10 -29 1 -49 -2 -45
-6z"/>
<path d="M4521 3040 c-7 -24 -27 -71 -43 -104 -17 -33 -37 -82 -45 -110 -19
-64 -67 -111 -122 -120 -22 -3 -43 -10 -46 -16 -3 -6 1 -7 9 -4 13 5 16 -2 17
-37 0 -24 4 -53 9 -64 l9 -20 1 20 c1 11 8 -5 17 -35 21 -81 37 -88 29 -15 -4
43 -3 52 4 32 5 -16 13 -34 19 -41 6 -6 13 -31 17 -55 4 -23 13 -48 20 -55 11
-11 9 -17 -9 -33 -12 -11 -34 -27 -49 -36 -14 -9 -36 -31 -49 -48 -13 -18 -18
-29 -11 -25 15 9 16 -6 1 -21 -16 -16 -1 -57 15 -44 7 6 16 8 19 4 4 -3 15 1
25 11 9 9 29 26 45 37 15 11 27 26 27 33 0 24 124 116 137 102 3 -3 13 2 21
11 14 14 17 14 26 1 8 -13 12 -12 28 4 11 11 17 26 14 34 -5 14 9 20 17 7 2
-5 2 -3 1 4 -2 7 4 26 12 42 22 45 29 98 14 116 -19 22 -25 19 -45 -25 -18
-39 -75 -104 -107 -121 -28 -15 -22 8 7 27 14 9 25 22 25 29 0 8 9 16 19 20
11 3 22 13 26 22 8 22 -21 -2 -87 -72 -27 -27 -48 -45 -48 -39 0 6 11 21 25
34 14 13 25 30 25 37 0 8 15 27 34 44 20 17 33 37 32 47 -2 9 -9 50 -16 90
-14 87 -24 95 -14 13 3 -33 3 -72 -1 -88 -12 -46 -46 127 -38 196 5 48 7 52
17 32 13 -24 28 -18 19 7 -4 10 -2 13 5 8 8 -5 10 -2 6 8 -3 9 -10 13 -15 10
-5 -3 -9 12 -9 33 -1 21 -7 65 -14 98 l-13 60 -12 -45z m5 -368 c-9 -8 -13 0
-20 38 l-6 35 16 -34 c8 -18 13 -36 10 -39z m-99 -74 c-3 -8 -6 -5 -6 6 -1 11
2 17 5 13 3 -3 4 -12 1 -19z m103 -161 c0 -2 -13 -16 -29 -31 -24 -23 -29 -25
-35 -11 -3 9 -2 14 3 11 4 -3 16 3 26 14 16 17 35 27 35 17z m-78 -69 c-7 -7
-12 -8 -12 -2 0 14 12 26 19 19 2 -3 -1 -11 -7 -17z m-101 -46 c-5 -10 -18
-25 -27 -33 -16 -12 -17 -12 -9 1 10 18 37 50 42 50 2 0 -1 -8 -6 -18z"/>
<path d="M4620 3064 c0 -8 5 -12 10 -9 6 4 8 11 5 16 -9 14 -15 11 -15 -7z"/>
<path d="M3366 3054 c-4 -9 -4 -19 -1 -22 2 -3 7 3 11 12 4 9 4 19 1 22 -2 3
-7 -3 -11 -12z"/>
<path d="M4590 3048 c0 -9 5 -20 10 -23 13 -8 13 5 0 25 -8 13 -10 13 -10 -2z"/>
<path d="M3250 2972 c-41 -54 -52 -79 -41 -87 15 -9 91 83 91 110 0 35 -10 31
-50 -23z"/>
<path d="M4627 2983 c10 -18 20 -28 22 -22 2 6 -6 21 -19 33 l-21 21 18 -32z"/>
<path d="M4420 2970 c0 -5 5 -10 10 -10 6 0 10 5 10 10 0 6 -4 10 -10 10 -5 0
-10 -4 -10 -10z"/>
<path d="M7121 2929 c-200 -27 -366 -51 -369 -54 -13 -12 11 -11 148 7 80 10
154 17 165 16 11 -2 -47 -12 -130 -22 -82 -10 -159 -22 -171 -27 -17 -6 -24
-19 -29 -61 -4 -29 -14 -69 -22 -89 l-14 -36 -232 -32 c-128 -18 -243 -34
-257 -37 -24 -5 -24 -5 -5 16 16 18 19 34 17 93 -1 40 -8 85 -14 100 -9 24
-13 26 -27 14 -10 -9 -117 -27 -301 -51 -545 -69 -705 -91 -683 -94 13 -2 80
4 150 13 71 9 218 27 328 40 364 45 499 65 506 76 3 6 8 2 12 -10 3 -12 2 -19
-1 -17 -4 2 -32 0 -62 -4 -30 -5 -109 -15 -175 -24 -66 -9 -205 -28 -310 -42
-104 -14 -251 -33 -325 -43 -74 -9 -145 -23 -157 -29 -16 -9 -24 -9 -29 -1
-11 18 -17 0 -78 -206 -68 -229 -87 -285 -98 -285 -4 0 -8 4 -8 9 0 5 -24 32
-53 60 l-52 51 -6 -27 c-4 -16 -7 -44 -7 -63 -1 -31 0 -33 12 -17 21 27 61 21
90 -14 14 -17 26 -35 26 -41 0 -23 -104 -400 -144 -523 -24 -71 -49 -154 -56
-183 -13 -47 -17 -53 -49 -62 -20 -5 -44 -10 -54 -10 -9 0 -43 -6 -75 -14 -31
-8 -83 -20 -115 -27 -32 -7 -61 -17 -64 -22 -3 -6 -1 -7 5 -3 15 9 15 -15 1
-48 -14 -31 -47 -40 -76 -20 -18 11 -23 11 -24 2 0 -7 -4 -4 -9 7 -13 30 -12
32 18 44 26 11 25 11 -8 5 -19 -3 -42 -6 -50 -6 -23 1 -360 -72 -505 -109 -38
-10 -111 -23 -162 -30 -66 -8 -97 -17 -109 -30 -16 -17 -15 -19 16 -36 18 -10
44 -28 59 -41 23 -20 23 -22 4 -12 -19 9 -22 8 -17 -5 4 -8 1 -15 -6 -15 -6 0
-8 -5 -4 -12 5 -7 2 -9 -8 -5 -13 4 -18 -6 -27 -51 -6 -31 -14 -69 -17 -84 -6
-27 -5 -28 32 -28 l39 0 -1 50 c0 32 4 50 11 50 15 0 65 -46 65 -60 0 -5 9
-10 21 -10 11 0 18 -4 15 -9 -3 -5 2 -12 11 -15 12 -5 14 -9 6 -14 -7 -4 38
-15 100 -25 109 -17 113 -18 142 -54 48 -58 67 -79 59 -63 -4 8 -14 23 -22 33
-8 9 -11 17 -6 17 4 0 19 -12 32 -27 13 -16 21 -22 17 -16 -6 14 85 -22 95
-36 3 -5 23 -14 45 -21 22 -7 83 -35 135 -62 135 -71 195 -88 315 -88 132 0
255 24 495 97 47 14 207 57 355 95 526 136 600 156 627 167 15 6 76 22 135 37
59 14 118 30 132 36 15 5 53 14 86 19 32 6 64 14 70 18 5 5 25 12 42 16 38 8
49 21 34 39 -13 16 24 36 99 56 50 13 113 47 159 86 29 24 31 30 31 98 0 65 6
86 56 207 49 119 249 606 471 1149 88 215 125 323 124 365 0 22 3 25 9 15 8
-12 10 -12 10 4 0 15 -5 17 -32 13 -18 -4 -67 -8 -108 -11 l-75 -6 85 15 c47
8 95 16 107 17 25 3 20 19 -5 17 -9 -1 -181 -23 -381 -50z m177 -6 c-10 -2
-28 -2 -40 0 -13 2 -5 4 17 4 22 1 32 -1 23 -4z m-108 -14 c-25 -4 -56 -7 -70
-7 -38 1 37 15 80 15 32 0 31 0 -10 -8z m-2133 -1245 c-9 -9 -27 6 -27 22 0
13 2 13 16 -1 9 -9 14 -18 11 -21z m-54 11 c-3 -9 -8 -14 -10 -11 -3 3 -2 9 2
15 9 16 15 13 8 -4z m1 -114 c-2 -2 -10 2 -19 9 -13 10 -15 9 -15 -9 0 -12 6
-21 16 -21 22 0 44 25 44 49 0 35 17 32 18 -3 1 -21 -6 -43 -19 -57 -13 -15
-18 -31 -14 -46 3 -13 1 -23 -5 -23 -5 0 -10 5 -10 11 0 6 -7 8 -15 5 -10 -4
-19 2 -26 17 -9 21 -9 21 -4 -3 19 -85 19 -80 -9 -80 -21 0 -26 -5 -26 -24 0
-29 -32 -66 -39 -45 -2 7 1 15 8 17 6 2 11 14 11 26 0 26 39 147 51 161 5 5 9
19 9 32 0 13 5 23 10 23 6 0 10 8 10 18 0 10 3 22 8 26 7 8 23 -75 16 -83z
m1907 -128 c-12 -20 -14 -14 -5 12 4 9 9 14 11 11 3 -2 0 -13 -6 -23z m-1907
-10 c-9 -39 -36 -123 -39 -123 -2 0 -6 7 -9 16 -3 8 -2 12 4 9 12 -7 12 12 0
40 -7 16 -9 17 -9 3 -1 -27 -21 -32 -21 -5 0 18 7 27 23 31 13 3 29 17 35 31
15 33 24 32 16 -2z m23 -75 c-3 -8 -6 -5 -6 6 -1 11 2 17 5 13 3 -3 4 -12 1
-19z m-87 -34 c0 -2 -12 -4 -27 -4 -21 0 -24 3 -14 9 13 8 41 5 41 -5z m-68
-72 c-7 -2 -10 -7 -7 -12 3 -4 -2 -13 -10 -20 -13 -11 -13 -8 -4 19 7 18 15
28 22 24 8 -5 7 -8 -1 -11z m-172 -32 c0 -13 -11 -13 -30 0 -12 8 -11 10 8 10
12 0 22 -4 22 -10z m7 -52 c-3 -7 -5 -2 -5 12 0 14 2 19 5 13 2 -7 2 -19 0
-25z m123 -5 c-11 -17 -11 -17 -6 0 3 10 6 24 7 30 0 9 2 9 5 0 3 -7 0 -20 -6
-30z m1858 11 c-6 -5 -256 -74 -271 -74 -40 0 67 38 128 46 6 0 17 4 25 7 46
19 130 34 118 21z m-2033 -188 c-24 -87 -47 -166 -51 -175 -9 -21 -11 -28 -13
-47 0 -8 -6 -12 -11 -9 -12 7 -7 30 32 150 30 94 32 98 47 155 12 47 31 94 36
89 2 -2 -16 -76 -40 -163z m1985 94 c0 -5 -2 -10 -4 -10 -3 0 -8 5 -11 10 -3
6 -1 10 4 10 6 0 11 -4 11 -10z m-2979 -56 c74 -31 145 -60 158 -65 13 -5 22
-12 19 -14 -2 -3 -72 22 -154 55 -192 78 -193 78 -173 79 9 1 77 -24 150 -55z
m2439 -3 c-21 -12 -421 -113 -427 -108 -2 3 33 15 79 27 321 87 384 101 348
81z m-1845 -159 c-3 -3 -11 0 -18 7 -9 10 -8 11 6 5 10 -3 15 -9 12 -12z
m-170 -32 c-5 -9 16 -15 38 -11 5 1 5 -3 2 -10 -5 -6 0 -10 11 -8 11 1 45 -10
78 -24 32 -15 65 -27 73 -27 8 0 11 -5 7 -12 -5 -8 -2 -9 10 -5 11 4 15 3 10
-4 -4 -8 1 -9 16 -4 16 5 20 4 15 -5 -5 -9 -1 -10 16 -6 20 6 21 5 6 -4 -13
-9 -36 -4 -105 24 -162 65 -218 93 -197 99 11 2 21 5 23 6 2 0 0 -3 -3 -9z
m1425 -84 c0 -3 -4 -8 -10 -11 -5 -3 -10 -1 -10 4 0 6 5 11 10 11 6 0 10 -2
10 -4z m-935 -26 c-3 -5 -13 -10 -21 -10 -11 0 -13 -6 -9 -20 7 -23 -10 -27
-19 -5 -4 12 -14 14 -41 9 -53 -10 -42 11 13 23 64 14 84 15 77 3z m65 -10 c0
-5 -12 -10 -26 -10 -14 0 -23 4 -19 10 3 6 15 10 26 10 10 0 19 -4 19 -10z"/>
<path d="M4385 2960 c-11 -4 -31 -6 -44 -3 -18 5 -22 3 -16 -7 5 -8 4 -11 -3
-6 -6 3 -37 3 -69 -1 l-58 -8 70 -6 c68 -5 126 8 141 32 6 10 6 10 -21 -1z"/>
<path d="M3327 2903 c-4 -3 -7 -11 -7 -17 0 -6 5 -5 12 2 6 6 9 14 7 17 -3 3
-9 2 -12 -2z"/>
<path d="M3821 2874 c0 -11 3 -14 6 -6 3 7 2 16 -1 19 -3 4 -6 -2 -5 -13z"/>
<path d="M3850 2839 c0 -11 -4 -17 -10 -14 -13 8 -13 7 6 -51 18 -51 53 -109
61 -100 3 3 -4 17 -15 33 -26 37 -35 70 -34 116 1 20 0 37 -3 37 -3 0 -5 -9
-5 -21z"/>
<path d="M6495 2827 c-152 -21 -178 -26 -157 -34 7 -3 68 2 135 11 67 10 134
18 150 20 25 2 40 19 20 22 -4 0 -71 -8 -148 -19z"/>
<path d="M3816 2783 c11 -44 24 -76 29 -71 5 5 -24 98 -31 98 -2 0 -1 -12 2
-27z"/>
<path d="M6306 2719 c-6 -39 -3 -59 9 -47 3 2 6 17 7 31 1 16 9 27 18 28 13 0
13 1 0 6 -8 3 -18 10 -21 15 -3 5 -9 -9 -13 -33z"/>
<path d="M6535 2689 c-55 -10 -129 -20 -164 -23 -35 -3 -69 -10 -75 -16 -14
-14 7 -13 171 10 149 21 173 27 173 41 0 5 -1 8 -2 8 -2 -1 -48 -10 -103 -20z"/>
<path d="M3260 2548 c0 -6 -6 -8 -13 -5 -16 6 -15 -16 3 -58 7 -16 20 -55 30
-85 10 -30 23 -56 29 -58 6 -2 11 0 10 5 -4 22 2 44 11 38 6 -3 8 -16 5 -28
-3 -12 -1 -29 5 -37 8 -13 11 -12 24 5 16 23 12 68 -12 135 -8 25 -15 54 -14
66 1 11 -4 21 -11 22 -6 1 -24 3 -39 6 -16 2 -28 0 -28 -6z"/>
<path d="M4666 2255 c-4 -14 -2 -34 4 -45 13 -24 13 -53 0 -45 -12 7 -60 -5
-60 -15 0 -5 13 -6 29 -4 24 4 31 1 37 -18 3 -13 12 -26 18 -30 8 -6 8 -8 0
-8 -7 0 -11 -24 -11 -65 0 -35 4 -62 8 -59 5 3 9 16 9 30 0 13 5 24 10 24 6 0
10 7 10 16 0 8 5 12 10 9 6 -4 8 -10 6 -14 -3 -4 -1 -13 5 -21 6 -10 9 1 9 37
0 50 -51 216 -70 228 -4 3 -11 -6 -14 -20z"/>
<path d="M4561 2134 c0 -11 3 -14 6 -6 3 7 2 16 -1 19 -3 4 -6 -2 -5 -13z"/>
<path d="M4580 2140 c0 -5 5 -10 10 -10 6 0 10 5 10 10 0 6 -4 10 -10 10 -5 0
-10 -4 -10 -10z"/>
<path d="M4507 2098 c-44 -24 -43 -37 1 -14 16 8 32 12 36 9 3 -4 6 1 6 10 0
10 -1 17 -2 16 -2 0 -20 -10 -41 -21z"/>
<path d="M4030 2081 c14 -11 30 -21 35 -21 11 0 -7 14 -40 31 -13 7 -12 3 5
-10z"/>
<path d="M3395 2080 c-3 -5 -2 -10 4 -10 5 0 13 5 16 10 3 6 2 10 -4 10 -5 0
-13 -4 -16 -10z"/>
<path d="M3325 2061 c-3 -5 6 -8 20 -7 35 4 44 16 12 16 -14 0 -28 -4 -32 -9z"/>
<path d="M3524 2048 c-4 -7 -4 -10 0 -6 5 4 20 2 35 -3 24 -9 25 -8 7 6 -24
18 -33 19 -42 3z"/>
<path d="M3450 2012 c0 -7 -4 -10 -10 -7 -13 8 -13 -15 0 -35 8 -13 10 -12 10
4 0 29 12 11 20 -31 l8 -38 1 41 c0 22 -6 49 -14 60 -9 12 -14 14 -15 6z"/>
<path d="M3480 2004 c0 -20 12 -23 32 -10 14 10 28 12 51 5 33 -9 84 -12 76
-5 -17 17 -159 26 -159 10z"/>
<path d="M4095 2010 c4 -6 11 -8 16 -5 14 9 11 15 -7 15 -8 0 -12 -5 -9 -10z"/>
<path d="M3405 1995 c3 -11 11 -42 16 -69 5 -27 12 -52 16 -55 3 -3 3 9 -1 28
-3 18 -6 43 -6 55 0 12 -7 31 -16 42 -15 19 -16 19 -9 -1z"/>
<path d="M3150 1970 c0 -5 5 -10 10 -10 6 0 10 5 10 10 0 6 -4 10 -10 10 -5 0
-10 -4 -10 -10z"/>
<path d="M3350 1971 c0 -5 5 -13 10 -16 6 -3 10 -2 10 4 0 5 -4 13 -10 16 -5
3 -10 2 -10 -4z"/>
<path d="M3503 1920 c0 -30 2 -43 4 -27 2 15 2 39 0 55 -2 15 -4 2 -4 -28z"/>
<path d="M4394 1963 c15 -4 16 -7 5 -14 -11 -7 -10 -9 4 -9 24 0 16 24 -9 27
-18 2 -18 2 0 -4z"/>
<path d="M3690 1935 c0 -27 1 -28 24 -19 24 9 20 44 -4 44 -15 0 -20 -7 -20
-25z"/>
<path d="M4120 1950 c0 -5 4 -10 9 -10 6 0 13 5 16 10 3 6 -1 10 -9 10 -9 0
-16 -4 -16 -10z"/>
<path d="M3825 1940 c3 -5 12 -7 20 -3 21 7 19 13 -6 13 -11 0 -18 -4 -14 -10z"/>
<path d="M4040 1940 c-12 -8 -10 -10 10 -9 14 0 34 4 45 9 17 7 16 9 -10 9
-16 0 -37 -4 -45 -9z"/>
<path d="M3147 1909 c-40 -46 -42 -52 -18 -44 12 4 21 2 21 -4 0 -6 7 -11 15
-11 11 0 15 12 15 45 0 25 -1 45 -3 45 -1 0 -15 -14 -30 -31z"/>
<path d="M3316 1930 c-2 -8 -10 -32 -16 -53 -7 -21 -18 -41 -26 -44 -8 -3 -14
-12 -14 -20 0 -8 -9 -17 -20 -20 -11 -3 -17 -9 -15 -14 3 -4 12 -6 20 -2 15 5
19 -5 16 -42 -2 -17 0 -17 8 -5 16 23 46 -1 47 -36 0 -16 3 -36 6 -44 27 -70
44 -157 39 -198 -2 -21 -39 4 -44 30 -3 13 -3 -4 -2 -38 4 -71 22 -144 35
-144 6 0 10 -13 10 -30 0 -32 15 -43 17 -12 1 9 11 45 24 80 18 48 25 59 30
45 4 -10 8 -14 8 -9 1 5 8 3 16 -4 8 -7 15 -9 15 -4 0 5 5 2 10 -6 5 -8 7 -31
5 -50 -5 -32 -4 -33 5 -10 6 13 9 34 6 46 -4 14 -1 21 10 21 12 0 14 -7 9 -34
-3 -19 -8 -40 -11 -47 -3 -9 6 -16 25 -19 21 -4 31 -12 31 -24 0 -13 -2 -15
-8 -5 -7 10 -15 10 -36 2 -22 -8 -26 -15 -22 -37 2 -16 5 -36 5 -46 1 -21 20
-18 43 8 9 11 17 15 18 8 0 -6 -6 -14 -12 -16 -7 -3 -3 -6 10 -6 18 -1 22 4
23 32 2 57 7 118 14 153 5 29 3 34 -15 35 -11 1 -24 3 -30 4 -5 1 -18 3 -29 4
-14 1 -21 11 -25 39 -14 77 -70 297 -78 300 -4 2 -8 12 -8 22 0 11 -6 39 -14
62 -8 24 -17 64 -21 91 -6 48 -25 66 -25 25 -1 -23 -1 -23 -15 2 -10 19 -15
21 -19 10z m19 -60 c3 -6 -1 -7 -9 -4 -18 7 -21 14 -7 14 6 0 13 -4 16 -10z"/>
<path d="M3452 1910 c0 -19 2 -27 5 -17 2 9 2 25 0 35 -3 9 -5 1 -5 -18z"/>
<path d="M4110 1928 c-19 -4 -52 -10 -72 -13 -34 -5 -38 -9 -38 -36 0 -29 1
-29 43 -24 40 6 41 5 18 -8 -15 -9 -20 -17 -12 -21 6 -4 11 -2 11 5 0 33 18
-11 24 -57 5 -39 3 -53 -7 -57 -23 -9 -33 5 -47 67 -8 33 -16 54 -18 47 -2 -7
1 -32 7 -56 14 -55 14 -88 1 -80 -14 9 -11 -23 6 -65 l14 -35 -6 45 c-4 25 -3
42 0 39 8 -7 31 -99 41 -159 4 -25 9 -53 11 -62 1 -10 -2 -18 -8 -18 -6 0 -8
-10 -4 -25 4 -14 2 -25 -4 -25 -5 0 -10 6 -10 13 0 9 -3 8 -9 -2 -7 -11 -11
-10 -19 5 -17 31 -20 12 -5 -37 l13 -45 43 5 c41 6 42 7 39 42 -3 36 -3 37 37
37 35 1 41 -3 50 -30 22 -63 46 -10 27 62 -9 35 -34 186 -40 240 -3 25 -12 70
-20 100 -9 30 -16 71 -17 90 -1 57 -9 66 -49 58z m15 -18 c-11 -5 -27 -9 -35
-9 -9 0 -8 4 5 9 11 5 27 9 35 9 9 0 8 -4 -5 -9z m-90 -19 c-19 -8 -18 -9 5
-13 l25 -4 -26 -5 c-25 -5 -29 0 -20 29 1 1 9 2 19 1 14 0 14 -2 -3 -8z m102
-8 c0 -10 7 -40 15 -68 17 -63 13 -85 -17 -85 -24 0 -31 16 -41 97 -4 34 -2
42 13 46 13 4 12 5 -7 7 -24 2 -24 3 5 10 17 4 30 8 30 9 1 0 1 -7 2 -16z m50
-349 c-3 -3 -12 -4 -19 -1 -8 3 -5 6 6 6 11 1 17 -2 13 -5z"/>
<path d="M4680 1871 c-7 -15 -7 -21 0 -21 12 0 25 28 17 36 -3 3 -10 -4 -17
-15z"/>
<path d="M3708 1853 c7 -3 16 -2 19 1 4 3 -2 6 -13 5 -11 0 -14 -3 -6 -6z"/>
<path d="M3700 1830 c0 -5 7 -7 15 -4 8 4 15 8 15 10 0 2 -7 4 -15 4 -8 0 -15
-4 -15 -10z"/>
<path d="M4561 1823 c-21 -4 -23 -9 -17 -41 3 -21 6 -42 6 -49 0 -7 6 -10 14
-7 7 3 11 14 9 28 -3 13 2 28 11 35 16 14 22 42 9 40 -5 -1 -19 -4 -32 -6z"/>
<path d="M3512 1800 c0 -14 2 -19 5 -12 2 6 2 18 0 25 -3 6 -5 1 -5 -13z"/>
<path d="M3480 1800 c0 -6 -4 -9 -8 -6 -16 9 -29 -9 -21 -29 6 -17 8 -17 8 -2
1 15 12 22 34 18 11 -2 9 17 -3 24 -5 3 -10 1 -10 -5z"/>
<path d="M3708 1803 c7 -3 16 -2 19 1 4 3 -2 6 -13 5 -11 0 -14 -3 -6 -6z"/>
<path d="M4420 1782 c0 -5 9 -51 20 -103 13 -64 19 -123 17 -184 -2 -49 -1
-79 1 -65 2 13 11 29 20 36 12 9 14 24 9 81 -10 101 -18 134 -31 126 -7 -4 -6
-1 1 9 7 8 12 35 10 59 -2 37 -6 44 -24 47 -13 2 -23 -1 -23 -6z"/>
<path d="M4262 1744 c-15 -16 -7 -38 10 -28 7 5 9 -6 5 -32 -3 -21 -3 -30 0
-20 4 15 7 16 14 5 6 -9 7 3 3 31 -8 54 -15 63 -32 44z"/>
<path d="M3521 1724 c0 -11 3 -14 6 -6 3 7 2 16 -1 19 -3 4 -6 -2 -5 -13z"/>
<path d="M4233 1700 c6 -22 13 -38 15 -36 6 7 -10 76 -18 76 -4 0 -2 -18 3
-40z"/>
<path d="M3468 1713 c7 -3 16 -2 19 1 4 3 -2 6 -13 5 -11 0 -14 -3 -6 -6z"/>
<path d="M3275 1650 c3 -25 10 -49 16 -55 11 -11 2 47 -13 80 -6 13 -7 5 -3
-25z"/>
<path d="M3980 1688 c0 -2 7 -23 15 -48 13 -37 14 -39 10 -11 -3 18 -5 40 -5
47 0 8 -4 14 -10 14 -5 0 -10 -1 -10 -2z"/>
<path d="M3883 1673 c-27 -5 -26 -2 -12 -59 l11 -44 42 6 c22 4 44 9 47 13 3
3 4 25 1 49 -4 40 -6 42 -36 41 -17 -1 -41 -4 -53 -6z"/>
<path d="M3738 1653 c-10 -3 -18 -7 -18 -10 0 -3 13 -51 29 -107 17 -55 33
-116 36 -135 3 -19 8 -38 11 -43 3 -4 -10 -8 -29 -8 l-35 0 5 -87 c3 -49 6
-89 7 -89 0 -1 40 5 88 14 86 15 88 16 82 41 -3 14 -8 40 -10 56 -11 72 -13
75 -43 75 -25 0 -30 4 -35 38 -4 20 -14 59 -22 85 -9 26 -17 58 -19 70 -6 47
-18 97 -24 100 -3 2 -14 2 -23 0z m42 -124 c0 -6 -4 -7 -10 -4 -5 3 -10 11
-10 16 0 6 5 7 10 4 6 -3 10 -11 10 -16z m110 -249 c0 -5 -10 -10 -22 -11 -13
0 -33 -2 -45 -5 -13 -2 -23 0 -23 5 0 6 17 12 38 14 20 2 40 4 45 5 4 1 7 -2
7 -8z m-120 -20 c0 -5 -4 -10 -10 -10 -5 0 -10 5 -10 10 0 6 5 10 10 10 6 0
10 -4 10 -10z m117 -6 c-3 -3 -12 -4 -19 -1 -8 3 -5 6 6 6 11 1 17 -2 13 -5z
m-62 -14 c3 -5 1 -10 -4 -10 -6 0 -11 5 -11 10 0 6 2 10 4 10 3 0 8 -4 11 -10z
m-55 -44 c0 -3 -4 -8 -10 -11 -5 -3 -10 -1 -10 4 0 6 5 11 10 11 6 0 10 -2 10
-4z"/>
<path d="M3484 1622 c3 -9 8 -29 12 -44 3 -17 13 -28 23 -28 13 0 13 2 2 9 -9
6 -11 16 -6 27 6 16 9 14 21 -16 l14 -35 -5 45 c-4 32 -2 39 4 25 5 -11 10
-30 10 -42 1 -13 6 -23 12 -23 6 0 9 6 6 14 -3 8 -9 30 -12 49 -6 31 -9 34
-46 35 -34 2 -40 -1 -35 -16z"/>
<path d="M4041 1564 c0 -11 3 -14 6 -6 3 7 2 16 -1 19 -3 4 -6 -2 -5 -13z"/>
<path d="M4290 1537 c0 -10 8 -17 18 -17 9 0 13 4 7 8 -5 4 -13 11 -17 16 -5
5 -8 2 -8 -7z"/>
<path d="M4272 1510 c0 -14 2 -19 5 -12 2 6 2 18 0 25 -3 6 -5 1 -5 -13z"/>
<path d="M4304 1488 c3 -13 6 -27 6 -31 0 -5 5 -5 10 -2 7 4 7 12 0 24 -5 10
-6 21 -3 25 3 3 1 6 -6 6 -9 0 -11 -8 -7 -22z"/>
<path d="M4650 1501 c0 -6 4 -13 10 -16 6 -3 7 1 4 9 -7 18 -14 21 -14 7z"/>
<path d="M4555 1486 c-11 -6 -22 -12 -24 -13 -2 -1 -4 -38 -6 -83 -2 -68 -1
-80 12 -76 8 3 26 6 39 6 15 0 24 6 24 16 0 13 -3 14 -14 5 -11 -9 -15 -5 -18
26 -6 43 0 66 13 57 11 -6 12 46 1 62 -5 9 -12 9 -27 0z"/>
<path d="M3955 1471 c-16 -7 -13 -9 19 -15 40 -8 52 -4 41 13 -7 13 -31 13
-60 2z"/>
<path d="M3592 1460 c0 -8 4 -26 8 -40 6 -20 8 -21 8 -5 0 11 -3 29 -8 40 -5
12 -8 14 -8 5z"/>
<path d="M3910 1463 c1 -20 17 -29 40 -22 24 7 24 7 3 8 -13 1 -23 6 -23 11 0
6 -4 10 -10 10 -5 0 -10 -3 -10 -7z"/>
<path d="M4404 1446 c-3 -8 -4 -25 -1 -38 4 -21 4 -21 6 4 0 15 6 30 12 34 9
5 10 -1 5 -22 -5 -21 -4 -25 4 -14 15 22 12 50 -5 50 -9 0 -18 -6 -21 -14z"/>
<path d="M3530 1440 c0 -6 7 -10 15 -10 8 0 15 2 15 4 0 2 -7 6 -15 10 -8 3
-15 1 -15 -4z"/>
<path d="M4471 1414 c0 -11 3 -14 6 -6 3 7 2 16 -1 19 -3 4 -6 -2 -5 -13z"/>
<path d="M3541 1404 c0 -11 3 -14 6 -6 3 7 2 16 -1 19 -3 4 -6 -2 -5 -13z"/>
<path d="M3580 1401 c0 -7 -5 -9 -12 -5 -7 5 -8 3 -3 -5 5 -9 10 -10 18 -2 6
6 8 14 4 18 -4 3 -7 1 -7 -6z"/>
<path d="M3978 1403 c7 -3 16 -2 19 1 4 3 -2 6 -13 5 -11 0 -14 -3 -6 -6z"/>
<path d="M3610 1376 c0 -8 4 -17 9 -20 5 -4 7 3 4 14 -6 23 -13 26 -13 6z"/>
<path d="M3953 1383 c-24 -5 -28 -24 -12 -58 7 -16 8 -13 4 13 -3 20 -1 31 5
27 6 -3 11 -18 11 -33 1 -24 3 -23 9 8 7 31 7 32 9 8 0 -16 5 -28 11 -28 5 0
7 15 5 33 -4 30 -4 30 10 -8 15 -39 15 -39 10 -6 -3 18 -5 37 -5 42 0 9 -17
10 -57 2z"/>
<path d="M3910 1349 c0 -13 5 -31 10 -39 7 -11 8 -5 4 20 -8 43 -14 51 -14 19z"/>
<path d="M3709 1344 c-4 -29 4 -141 11 -158 5 -12 6 19 3 69 -5 80 -11 116
-14 89z"/>
<path d="M3296 1323 c-6 -14 -5 -15 5 -6 7 7 10 15 7 18 -3 3 -9 -2 -12 -12z"/>
<path d="M3466 1325 c-3 -9 -6 -22 -5 -28 0 -7 5 -1 10 12 5 13 8 26 5 28 -2
2 -6 -3 -10 -12z"/>
<path d="M4431 1304 c0 -11 3 -14 6 -6 3 7 2 16 -1 19 -3 4 -6 -2 -5 -13z"/>
<path d="M4240 1300 c-12 -8 -12 -10 5 -11 11 0 14 -3 8 -6 -7 -2 -13 -9 -13
-14 0 -4 7 -6 15 -3 8 4 15 15 15 25 0 21 -8 23 -30 9z"/>
<path d="M3306 1285 c4 -8 8 -15 10 -15 2 0 4 7 4 15 0 8 -4 15 -10 15 -5 0
-7 -7 -4 -15z"/>
<path d="M3275 1258 c4 -18 18 -58 32 -88 l24 -55 15 32 c14 29 14 35 -2 70
-18 37 -50 72 -67 73 -5 0 -5 -15 -2 -32z"/>
<path d="M4078 1273 c-29 -4 -33 -10 -20 -29 7 -11 82 -7 82 5 0 4 -17 6 -37
4 l-38 -3 40 14 c39 14 28 17 -27 9z"/>
<path d="M1230 1236 c0 -8 20 -22 44 -31 25 -10 55 -28 67 -41 12 -13 28 -24
34 -24 7 0 33 -18 59 -41 37 -33 46 -47 46 -74 0 -22 14 -55 45 -102 25 -37
47 -72 49 -78 2 -5 7 -7 11 -3 4 4 -2 19 -12 35 -32 45 -71 125 -77 158 -5 24
-4 26 4 13 6 -10 15 -18 20 -18 17 0 11 19 -11 38 -42 34 -50 45 -45 59 6 16
-17 44 -51 62 -12 6 -20 17 -17 25 4 10 -7 12 -49 8 -37 -3 -63 1 -85 12 -27
14 -32 14 -32 2z"/>
<path d="M3473 1190 c0 -25 2 -35 4 -22 2 12 2 32 0 45 -2 12 -4 2 -4 -23z"/>
<path d="M3422 1180 c0 -14 2 -19 5 -12 2 6 2 18 0 25 -3 6 -5 1 -5 -13z"/>
<path d="M3421 1134 c0 -11 3 -14 6 -6 3 7 2 16 -1 19 -3 4 -6 -2 -5 -13z"/>
<path d="M1185 1100 c3 -5 11 -10 16 -10 6 0 7 5 4 10 -3 6 -11 10 -16 10 -6
0 -7 -4 -4 -10z"/>
<path d="M1230 1080 c8 -5 20 -10 25 -10 6 0 3 5 -5 10 -8 5 -19 10 -25 10 -5
0 -3 -5 5 -10z"/>
<path d="M1270 1064 c0 -9 131 -67 137 -60 3 3 -3 8 -13 11 -10 4 -43 17 -71
31 -29 13 -53 21 -53 18z"/>
<path d="M2418 1041 c-2 -3 -24 -25 -51 -47 -34 -31 -60 -44 -93 -49 -25 -3
-43 -9 -41 -12 3 -3 29 -2 59 2 45 6 60 15 107 60 33 32 48 52 38 52 -9 0 -18
-3 -19 -6z"/>
<path d="M1140 965 c0 -8 82 -45 100 -45 8 0 -9 11 -38 25 -58 27 -62 28 -62
20z"/>
<path d="M1395 871 c-6 -5 -26 -14 -45 -19 l-35 -10 32 -1 c34 -1 83 17 83 31
0 11 -24 10 -35 -1z"/>
<path d="M1814 860 c-37 -8 -104 -48 -104 -60 0 -17 75 3 95 25 11 13 29 28
40 34 23 12 14 12 -31 1z"/>
<path d="M1143 828 c-5 -10 91 -8 132 2 20 4 3 6 -48 6 -44 -1 -81 -4 -84 -8z"/>
<path d="M1365 720 c7 -12 52 -12 80 0 15 6 6 9 -33 9 -33 1 -51 -3 -47 -9z"/>
<path d="M7095 605 c-185 -47 -1441 -361 -1575 -394 -642 -155 -789 -192 -811
-201 -17 -7 45 -8 216 -4 254 6 274 8 345 20 25 4 59 8 75 9 17 1 32 3 35 4 3
1 27 4 54 5 28 2 52 8 54 14 6 18 20 14 25 -5 4 -16 6 -15 12 3 8 25 64 42 76
23 4 -7 9 -4 14 10 5 17 10 19 20 11 9 -8 14 -5 18 11 4 14 11 20 20 16 8 -3
19 -1 25 5 8 8 15 8 26 -1 10 -9 16 -9 21 -1 5 8 11 7 23 -2 11 -10 16 -10 19
-1 2 7 10 10 17 7 8 -3 16 2 20 11 4 13 10 14 26 5 15 -8 20 -8 20 1 0 6 7 9
15 6 8 -4 17 -2 20 3 4 6 15 10 26 10 10 0 19 4 19 10 0 5 7 7 16 3 9 -3 19
-1 23 4 3 6 35 18 71 27 36 9 76 25 90 35 18 13 32 16 48 10 13 -5 33 -4 50 3
15 6 44 13 65 15 22 2 51 9 65 15 28 12 52 17 90 19 12 1 22 5 22 10 0 5 12 9
28 9 33 0 122 31 122 43 0 4 4 6 8 3 5 -3 33 -1 63 3 38 6 58 5 68 -3 10 -8
15 -8 18 0 11 34 31 45 85 48 31 3 67 12 81 21 14 9 28 16 31 16 4 -1 8 0 11
0 23 6 72 4 82 -4 8 -6 17 3 28 29 9 21 22 45 29 54 17 19 26 80 12 79 -6 0
-33 -6 -61 -14z"/>
<path d="M3020 489 c-52 -4 -198 -15 -325 -24 -250 -18 -387 -37 -444 -63 -52
-24 -89 -50 -101 -73 -10 -18 -8 -19 22 -14 18 3 37 10 43 14 5 5 30 11 55 14
25 4 70 11 100 17 88 16 370 23 386 9 12 -9 19 -8 37 8 12 11 31 25 42 31 33
16 214 60 303 72 45 7 82 14 82 16 0 6 -89 3 -200 -7z"/>
<path d="M3380 253 c-136 -21 -161 -26 -157 -29 2 -2 37 1 78 7 41 6 155 11
254 12 136 1 162 2 105 8 -82 7 -240 9 -280 2z"/>
<path d="M3778 233 c7 -3 16 -2 19 1 4 3 -2 6 -13 5 -11 0 -14 -3 -6 -6z"/>
<path d="M1360 225 c-8 -2 -103 -12 -210 -22 -157 -14 -181 -19 -125 -21 39
-1 138 1 220 6 83 5 156 7 162 5 7 -3 13 -12 13 -21 0 -23 16 -2 24 31 6 26 5
27 -31 26 -21 -1 -45 -3 -53 -4z"/>
<path d="M3188 213 c7 -3 16 -2 19 1 4 3 -2 6 -13 5 -11 0 -14 -3 -6 -6z"/>
<path d="M3765 133 c-267 -22 -895 -118 -857 -131 15 -5 183 14 747 83 22 3
163 14 314 25 151 11 277 23 280 25 5 5 -418 4 -484 -2z"/>
</g>
</svg>
