<?xml version="1.0" standalone="no"?>
<!DOCTYPE svg PUBLIC "-//W3C//DTD SVG 20010904//EN"
 "http://www.w3.org/TR/2001/REC-SVG-20010904/DTD/svg10.dtd">
<svg version="1.0" xmlns="http://www.w3.org/2000/svg"
 width="626.000000pt" height="470.000000pt" viewBox="0 0 626.000000 470.000000"
 preserveAspectRatio="xMidYMid meet">

<g transform="translate(0.000000,470.000000) scale(0.100000,-0.100000)"
fill="#000000" stroke="none">
<path d="M4395 4480 c-27 -5 -78 -9 -112 -9 -35 -1 -63 -5 -63 -11 0 -5 -7
-10 -16 -10 -11 0 -14 4 -8 13 5 7 2 5 -8 -5 -9 -10 -27 -18 -40 -18 -12 0
-54 -12 -92 -27 -54 -22 -73 -36 -93 -67 -14 -22 -26 -49 -27 -61 -1 -16 -6
-21 -19 -17 -21 5 -68 -36 -104 -91 -30 -48 -72 -91 -96 -100 -12 -5 -17 -15
-15 -34 2 -23 -1 -29 -20 -31 -17 -3 -21 -8 -17 -22 7 -23 -17 -47 -71 -71
-43 -18 -69 -50 -60 -72 2 -7 5 -5 5 4 1 9 7 22 15 28 19 16 56 -6 56 -32 0
-10 5 -15 10 -12 16 10 12 -21 -4 -35 -10 -7 -35 -10 -73 -6 -32 3 -49 3 -38
0 33 -10 41 -23 21 -37 -12 -9 -16 -22 -13 -38 4 -23 4 -23 6 4 1 31 30 38 51
12 13 -16 35 -10 24 6 -3 5 -10 6 -16 3 -7 -4 -8 -2 -4 4 11 19 36 14 36 -7 0
-29 -47 -74 -71 -68 -18 5 -20 2 -14 -26 4 -18 11 -36 16 -42 5 -5 9 -17 9
-26 0 -10 4 -21 10 -24 5 -3 7 0 4 8 -3 8 1 19 9 25 21 18 63 -24 46 -45 -7
-8 -21 -12 -34 -9 -19 5 -21 1 -23 -34 -2 -22 2 -40 7 -40 6 0 17 -15 25 -33
20 -49 61 -77 110 -77 23 0 47 -5 54 -12 9 -9 12 -4 12 24 0 20 -6 38 -12 41
-7 2 7 6 31 8 38 4 44 2 52 -18 5 -13 6 -30 3 -38 -5 -11 1 -15 24 -15 17 0
34 -5 38 -12 5 -8 2 -9 -10 -5 -14 6 -17 2 -14 -20 2 -19 10 -29 28 -34 20 -6
21 -7 5 -8 -14 -1 -24 -12 -32 -38 -13 -42 -8 -64 13 -56 8 3 14 -1 14 -8 1
-10 5 -9 14 4 7 9 25 17 39 17 l26 0 -34 68 c-22 44 -35 87 -39 125 l-5 57 30
0 c18 0 29 5 29 14 0 19 -46 55 -79 63 -40 9 -50 21 -71 90 -21 70 -26 133
-10 133 6 0 10 5 10 10 0 6 12 40 28 75 20 47 35 69 57 79 16 8 33 12 37 10 5
-3 7 0 6 8 -2 8 6 13 19 12 12 0 20 3 17 8 -3 4 -2 8 3 8 13 0 28 -14 29 -27
3 -36 4 -38 15 -23 9 13 10 12 5 -3 -3 -10 1 -35 10 -55 10 -21 16 -64 16
-102 0 -66 1 -67 12 -17 8 34 26 36 26 2 0 -13 6 -28 13 -32 23 -13 28 -41 9
-46 -16 -4 -16 -5 0 -6 9 0 20 4 23 9 3 6 11 10 16 10 6 0 7 -5 3 -11 -5 -8 1
-10 20 -7 14 3 29 2 32 -3 8 -13 -37 -36 -85 -44 -70 -12 -141 -48 -141 -74 0
-16 31 -13 55 5 31 23 145 55 195 53 25 0 66 2 93 6 31 5 47 4 47 -3 0 -6 9
-13 19 -17 28 -8 32 -27 37 -167 2 -68 5 -140 7 -160 3 -38 18 -63 40 -63 7 0
10 -9 9 -20 -3 -16 -2 -17 12 -6 28 23 30 3 4 -32 -24 -30 -24 -33 -7 -33 12
0 18 5 14 13 -2 8 16 28 43 48 26 18 63 54 82 79 19 25 41 45 49 46 8 0 35
-22 60 -48 25 -27 54 -52 64 -55 24 -9 22 -54 -3 -62 -10 -3 -29 -1 -41 6 -20
10 -21 9 -16 -10 5 -21 3 -21 -61 -15 -37 4 -71 10 -76 15 -6 5 -18 9 -28 9
-14 0 -18 -6 -15 -25 1 -13 6 -27 10 -31 4 -4 7 -15 7 -25 0 -10 5 -30 11 -46
7 -15 13 -36 14 -47 2 -16 0 -15 -15 4 -10 13 -30 47 -44 76 -23 45 -32 54
-54 54 l-27 -1 25 -14 c25 -14 25 -14 3 -15 -13 0 -23 -5 -23 -10 0 -6 10 -15
23 -20 12 -5 16 -9 8 -9 -11 -1 -11 -4 -1 -16 11 -13 7 -15 -23 -15 -29 0 -34
-3 -31 -18 6 -22 -56 -95 -95 -111 -16 -7 -40 -11 -53 -9 -20 3 -25 13 -41 88
-12 59 -24 90 -38 103 -25 20 -40 22 -34 5 3 -7 7 -40 9 -73 2 -33 7 -92 11
-131 5 -47 4 -78 -4 -92 -6 -12 -14 -49 -17 -84 -5 -58 -13 -86 -35 -130 -5
-10 -9 -25 -9 -33 0 -8 -9 -24 -20 -35 -19 -19 -19 -19 23 -31 23 -6 67 -15
97 -19 51 -7 60 -5 115 25 33 18 80 38 103 45 35 9 42 15 37 28 -4 9 -16 39
-26 66 l-18 49 27 49 c22 39 32 48 55 48 15 0 27 4 27 10 0 29 175 40 251 16
41 -13 137 -57 239 -111 25 -13 70 -34 100 -45 30 -12 89 -38 130 -59 41 -20
109 -49 150 -64 69 -25 84 -36 190 -140 113 -110 170 -157 170 -138 0 5 -42
45 -92 89 -118 101 -211 204 -288 317 -19 28 -61 83 -93 123 -33 40 -68 94
-78 120 -12 32 -18 40 -19 25 -1 -73 -48 31 -73 162 -35 181 -27 288 27 360
28 37 42 83 20 64 -8 -6 -14 -18 -14 -25 0 -8 -4 -13 -9 -11 -12 3 -91 -154
-91 -179 0 -11 14 -82 30 -159 17 -77 30 -146 30 -154 0 -7 -14 4 -31 25 -43
54 -44 55 -21 9 21 -41 80 -108 121 -137 33 -23 70 -78 64 -94 -3 -8 1 -14 10
-14 8 0 18 -7 21 -16 3 -8 2 -12 -4 -9 -6 4 -14 -4 -19 -17 -5 -14 -5 -25 2
-30 6 -3 12 -22 14 -42 4 -44 -12 -41 -46 9 -13 19 -29 35 -35 35 -6 0 -24 11
-40 25 -33 28 -45 33 -26 10 10 -12 9 -16 -5 -21 -11 -5 -21 -1 -27 9 -5 10
-15 17 -23 17 -7 0 -20 6 -27 13 -23 23 -92 67 -105 67 -7 0 -13 -9 -13 -20 0
-13 -5 -18 -15 -14 -8 4 -15 12 -15 20 0 12 -11 18 -31 16 -12 -2 -18 362 -7
426 9 46 9 78 0 126 -17 91 -16 96 16 96 19 0 23 3 14 9 -18 11 0 47 60 117
24 29 59 72 80 96 20 24 60 57 90 73 29 16 59 35 66 42 15 14 25 16 35 6 4 -3
-2 -12 -13 -20 -30 -21 -24 -33 18 -33 44 0 126 -23 116 -32 -3 -4 7 -10 22
-13 45 -10 51 -13 26 -14 -13 -1 -20 -5 -17 -11 4 -6 -1 -7 -12 -3 -15 6 -16
4 -6 -9 7 -8 10 -18 6 -21 -3 -4 1 -7 10 -7 10 0 17 -4 17 -10 0 -5 7 -10 15
-10 9 0 12 -6 8 -16 -3 -8 -12 -13 -19 -10 -8 3 -14 -1 -14 -9 0 -20 -17 -19
-29 2 -5 10 -13 15 -16 11 -9 -9 85 -98 104 -98 9 -1 27 -7 40 -14 l24 -13
-34 -13 -34 -12 31 -11 c16 -7 37 -18 45 -25 8 -7 23 -20 34 -28 20 -15 20
-15 -3 -11 -25 6 -82 -13 -82 -26 0 -5 14 -7 30 -3 17 3 30 1 30 -4 0 -6 7
-10 15 -10 9 0 15 -9 15 -25 0 -19 5 -25 23 -26 17 -1 18 -2 4 -6 -10 -3 -14
-9 -10 -16 4 -7 8 -16 8 -22 0 -5 25 -17 55 -26 l55 -17 -42 -1 c-23 -1 -44
-5 -47 -9 -2 -4 -36 -7 -74 -6 -86 3 -127 -7 -180 -46 -41 -29 -132 -155 -132
-181 0 -8 17 12 37 44 21 31 44 57 52 57 8 0 11 3 8 7 -8 7 9 18 108 68 72 36
129 43 185 23 22 -8 23 -10 8 -19 -32 -18 -19 -28 17 -13 19 7 44 14 56 14 18
0 20 -2 8 -16 -7 -8 -26 -22 -41 -30 -24 -12 -27 -18 -18 -30 7 -7 16 -12 20
-9 11 7 40 -5 40 -17 0 -5 -4 -6 -10 -3 -5 3 -10 -4 -10 -15 0 -15 5 -20 14
-17 20 8 27 -3 15 -24 -7 -14 -7 -19 3 -17 7 2 14 -7 16 -19 2 -13 8 -23 14
-23 6 0 8 -10 4 -25 -5 -21 -3 -25 16 -25 21 -1 21 -2 6 -11 -10 -5 -18 -14
-18 -19 0 -5 8 -6 18 -3 15 6 15 5 3 -10 -13 -16 -12 -17 15 -7 15 6 34 16 41
22 8 7 13 7 13 0 0 -5 -7 -15 -15 -22 -12 -10 -45 -66 -45 -77 0 -2 11 4 24
12 29 19 45 3 24 -22 -10 -13 -6 -12 17 3 16 10 26 14 22 8 -13 -21 -112 -92
-172 -123 -61 -31 -69 -39 -19 -21 20 8 36 8 56 -1 29 -12 33 -20 43 -84 4
-22 15 -65 25 -96 23 -69 44 -184 37 -203 -3 -8 -29 -16 -61 -20 -31 -4 -56
-12 -56 -18 0 -5 -8 -7 -17 -4 -13 5 -11 0 6 -18 23 -24 31 -26 110 -26 47 1
115 6 151 13 59 12 72 19 122 68 31 29 67 64 80 76 13 12 33 35 46 52 l22 30
0 557 -1 557 -23 -22 c-13 -12 -23 -30 -22 -39 1 -14 -7 -17 -46 -15 -27 2
-48 -1 -48 -6 0 -33 -151 -6 -171 31 -6 11 -21 18 -40 18 -25 0 -33 6 -44 34
-8 20 -25 38 -37 41 -72 22 -178 70 -178 80 0 7 -8 23 -19 36 -10 13 -24 41
-32 61 -7 21 -21 41 -32 44 -10 3 -17 13 -15 22 4 17 -36 54 -98 93 l-33 20
19 42 c14 30 25 42 40 41 32 -1 20 28 -13 34 -11 2 -35 12 -55 22 -21 11 -59
24 -87 31 -27 6 -59 16 -70 22 -151 81 -166 87 -208 81 -23 -4 -58 -13 -78
-20 -36 -12 -37 -12 -60 24 -13 19 -33 40 -44 46 -20 11 -44 38 -58 66 -5 10
-6 8 -3 -7 2 -13 0 -23 -5 -23 -5 0 -9 8 -9 18 0 9 -7 30 -15 46 -21 40 -18
46 5 11 11 -16 20 -24 20 -16 0 30 -161 168 -216 185 -12 4 -34 24 -48 46 -29
44 -38 46 -141 30z m-145 -130 c0 -5 -5 -10 -11 -10 -5 0 -7 5 -4 10 3 6 8 10
11 10 2 0 4 -4 4 -10z m-45 -40 c6 -9 -17 -40 -29 -40 -8 0 -7 35 1 43 9 10
21 9 28 -3z m-41 -59 c3 -5 -1 -12 -10 -15 -13 -5 -14 -9 -4 -21 10 -12 10
-15 -3 -15 -8 0 -17 -6 -20 -12 -2 -7 -7 -10 -11 -6 -4 3 -3 14 3 25 5 10 12
26 15 36 6 18 21 23 30 8z m-249 -61 c-3 -5 -14 -10 -23 -10 -15 0 -15 2 -2
10 20 13 33 13 25 0z m166 -67 c0 -5 2 -19 5 -32 4 -23 3 -24 -14 -8 -10 9
-25 17 -32 17 -9 0 -7 5 6 15 21 16 34 19 35 8z m-66 -62 c-3 -12 -10 -21 -15
-21 -5 0 -4 11 2 25 13 29 23 26 13 -4z m855 9 c0 -5 -2 -10 -4 -10 -3 0 -8 5
-11 10 -3 6 -1 10 4 10 6 0 11 -4 11 -10z m4 -35 c3 -8 1 -15 -4 -15 -6 0 -10
7 -10 15 0 8 2 15 4 15 2 0 6 -7 10 -15z m-1117 -51 c-3 -3 -12 -4 -19 -1 -8
3 -5 6 6 6 11 1 17 -2 13 -5z m1693 -85 c0 -14 -17 -10 -23 5 -4 10 -1 13 9 9
7 -3 14 -9 14 -14z m-1846 -4 c-4 -8 -11 -12 -16 -9 -6 4 -5 10 3 15 19 12 19
11 13 -6z m1090 -50 c3 -8 1 -15 -4 -15 -6 0 -10 7 -10 15 0 8 2 15 4 15 2 0
6 -7 10 -15z m68 -106 c16 -21 17 -30 8 -53 -6 -16 -13 -27 -16 -24 -2 3 0 16
5 30 11 30 -3 58 -29 58 -11 0 -20 5 -20 11 0 18 32 5 52 -22z m-502 -69 c0
-5 -7 -10 -16 -10 -8 0 -12 5 -9 10 3 6 10 10 16 10 5 0 9 -4 9 -10z m-640 -4
c0 -3 -4 -8 -10 -11 -5 -3 -10 -1 -10 4 0 6 5 11 10 11 6 0 10 -2 10 -4z m80
-56 c0 -5 -4 -10 -10 -10 -5 0 -10 5 -10 10 0 6 5 10 10 10 6 0 10 -4 10 -10z
m1022 -12 c-7 -7 -12 -8 -12 -2 0 6 3 14 7 17 3 4 9 5 12 2 2 -3 -1 -11 -7
-17z m-1047 -8 c0 -7 -7 -17 -16 -23 -12 -7 -21 -5 -37 11 -11 11 -18 23 -15
26 11 11 68 -1 68 -14z m1085 -20 c-6 -11 -15 -20 -20 -20 -6 0 -2 9 7 20 10
11 19 20 21 20 1 0 -2 -9 -8 -20z m-33 -36 c-3 -3 -12 -4 -19 -1 -8 3 -5 6 6
6 11 1 17 -2 13 -5z m-1127 -23 c0 -6 -4 -13 -10 -16 -5 -3 -10 1 -10 9 0 9 5
16 10 16 6 0 10 -4 10 -9z m1860 -32 c17 -30 11 -34 -15 -9 -14 13 -25 27 -25
31 0 14 30 -2 40 -22z m-1790 -14 c-14 -16 -50 -21 -50 -6 0 6 10 17 22 25 27
19 48 5 28 -19z m114 16 c4 -5 0 -12 -6 -15 -7 -3 -3 -3 8 -1 23 6 42 -21 26
-37 -12 -12 -52 20 -52 43 0 20 15 26 24 10z m-66 -44 c7 -8 7 -17 -2 -30 -16
-21 -35 -22 -65 -1 l-24 17 29 13 c38 16 49 17 62 1z m933 -442 c8 -28 8 -29
-6 -11 -8 11 -15 31 -14 45 1 26 3 23 20 -34z m9 -180 c0 -6 -16 -18 -35 -27
-41 -18 -45 -9 -18 47 l17 36 18 -23 c10 -13 18 -28 18 -33z m-370 -320 c0
-25 -23 -35 -35 -15 -10 16 2 40 20 40 9 0 15 -9 15 -25z"/>
<path d="M2019 3966 c-25 -7 -54 -19 -65 -25 -10 -7 -12 -10 -4 -8 9 3 41 10
73 16 31 7 59 17 62 22 8 12 -9 10 -66 -5z"/>
<path d="M6056 3699 c16 -17 28 -39 26 -50 -2 -10 -1 -19 1 -19 9 0 77 30 77
34 0 8 -107 66 -121 66 -7 0 0 -14 17 -31z"/>
<path d="M4105 3660 c3 -5 8 -10 11 -10 2 0 4 5 4 10 0 6 -5 10 -11 10 -5 0
-7 -4 -4 -10z"/>
<path d="M3495 3629 c-4 -6 -5 -12 -2 -15 2 -3 7 2 10 11 7 17 1 20 -8 4z"/>
<path d="M4108 3523 c-10 -2 -18 -9 -18 -14 0 -5 -11 -9 -24 -9 -29 0 -40 -13
-31 -39 4 -14 12 -17 28 -13 12 3 25 10 29 16 5 8 8 7 8 -1 0 -7 7 -10 15 -7
8 4 23 0 32 -7 15 -13 15 -11 -1 19 -18 35 -13 41 16 15 15 -13 22 -14 45 -4
22 10 25 10 15 -2 -10 -12 -8 -13 15 -9 26 4 62 36 63 55 0 7 -163 8 -192 0z"/>
<path d="M5375 3410 c-3 -5 -1 -10 4 -10 6 0 11 5 11 10 0 6 -2 10 -4 10 -3 0
-8 -4 -11 -10z"/>
<path d="M5420 3406 c0 -2 7 -7 16 -10 8 -3 12 -2 9 4 -6 10 -25 14 -25 6z"/>
<path d="M6148 3363 c-30 -8 -20 -20 12 -15 17 2 30 8 30 13 0 9 -13 10 -42 2z"/>
<path d="M4133 3266 c6 -36 -7 -46 -60 -46 -13 0 -23 -4 -23 -10 0 -5 6 -10
14 -10 7 0 16 -9 19 -20 6 -23 27 -27 27 -5 0 8 8 15 18 15 26 0 42 20 42 51
0 38 -10 59 -27 59 -12 0 -14 -8 -10 -34z"/>
<path d="M4188 3132 c-38 -2 -68 -7 -68 -12 0 -5 -7 -7 -15 -4 -8 4 -15 2 -15
-4 0 -16 57 -25 80 -12 26 14 63 4 40 -10 -8 -5 -11 -12 -7 -16 4 -4 21 6 37
23 17 17 27 33 23 35 -4 2 -38 2 -75 0z"/>
<path d="M1814 3084 c-32 -19 -63 -39 -67 -43 -4 -4 95 -11 221 -15 126 -4
281 -11 343 -16 130 -11 299 -20 254 -14 -109 16 -468 79 -559 100 -60 13
-114 24 -120 24 -7 0 -39 -16 -72 -36z"/>
<path d="M2813 2937 c-18 -12 -32 -27 -33 -33 0 -6 -17 -18 -37 -26 -36 -14
-201 -123 -233 -154 -18 -17 201 99 244 129 l28 20 -7 -22 c-8 -28 -2 -27 32
5 23 22 24 25 6 15 -45 -23 -22 8 30 41 71 45 79 46 32 3 -42 -39 -32 -38 23
2 17 13 32 28 32 34 0 18 -84 8 -117 -14z"/>
<path d="M2708 2806 c-20 -12 -45 -29 -56 -39 -10 -9 -23 -14 -28 -10 -5 4 -3
1 4 -7 31 -36 16 -54 -115 -130 -149 -86 -344 -212 -338 -218 2 -3 23 5 47 16
l43 21 -35 -29 c-19 -16 -50 -37 -67 -47 -18 -10 -33 -22 -33 -26 0 -5 11 -2
23 6 26 17 155 90 254 144 36 20 60 39 57 46 -3 8 52 40 147 87 83 41 155 81
161 88 17 20 -7 15 -62 -13 -47 -24 -49 -24 -42 -5 4 12 27 31 51 43 41 21
102 95 68 81 -8 -3 -18 -1 -22 5 -8 14 -13 13 -57 -13z"/>
<path d="M2531 2710 c-14 -12 -18 -20 -10 -20 8 0 20 9 27 20 15 25 13 25 -17
0z"/>
<path d="M2451 2664 c-39 -28 -35 -30 15 -9 20 8 33 19 29 25 -3 5 -7 10 -8 9
-1 0 -17 -12 -36 -25z"/>
<path d="M2896 2651 c-4 -6 -15 -9 -24 -7 -13 4 -17 0 -17 -19 0 -17 7 -26 23
-30 18 -4 23 -11 20 -33 -3 -23 -16 -34 -91 -72 -67 -34 -105 -63 -164 -122
-42 -43 -79 -78 -82 -78 -3 0 -12 -4 -20 -9 -10 -7 -11 -13 -2 -30 7 -11 16
-21 22 -21 6 0 46 26 89 59 43 32 118 83 168 112 77 46 92 59 97 85 6 34 35
66 57 63 31 -4 59 2 53 11 -3 6 -2 10 4 10 12 0 8 47 -5 59 -14 13 -60 22 -68
13 -13 -12 -41 -8 -47 7 -4 11 -7 12 -13 2z"/>
<path d="M2350 2603 c-20 -20 -21 -23 -5 -15 37 20 61 41 45 41 -8 -1 -26 -12
-40 -26z"/>
<path d="M2815 2581 c-6 -4 -46 -27 -90 -51 -44 -23 -84 -46 -90 -50 -5 -4
-41 -24 -80 -45 -78 -42 -114 -65 -101 -65 20 0 415 203 410 211 -7 11 -37 12
-49 0z"/>
<path d="M1163 2566 c0 -11 6 -14 19 -10 10 3 64 -2 119 -11 55 -9 102 -15
105 -13 2 3 -42 12 -99 22 -56 10 -111 20 -123 22 -14 4 -21 0 -21 -10z"/>
<path d="M2283 2568 c-23 -11 -31 -28 -13 -28 6 0 10 4 10 8 0 5 10 14 23 20
12 6 18 11 12 11 -5 0 -20 -5 -32 -11z"/>
<path d="M2235 2535 c-5 -2 -22 -6 -37 -9 -32 -7 -34 -14 -14 -42 14 -19 14
-19 13 1 -1 14 5 21 20 23 12 2 24 10 27 18 3 8 4 14 3 13 -1 0 -6 -2 -12 -4z"/>
<path d="M5628 2503 c7 -3 16 -2 19 1 4 3 -2 6 -13 5 -11 0 -14 -3 -6 -6z"/>
<path d="M2435 2486 c-11 -7 -49 -30 -85 -51 -127 -74 -210 -130 -210 -142 0
-21 11 -16 105 43 49 30 122 74 162 96 41 22 72 45 70 51 -5 16 -20 17 -42 3z"/>
<path d="M1150 2482 c0 -4 26 -14 58 -20 31 -6 74 -16 95 -21 20 -5 37 -6 37
-2 0 3 -35 14 -78 24 -42 10 -85 21 -94 24 -10 2 -18 0 -18 -5z"/>
<path d="M4713 2443 c9 -2 23 -2 30 0 6 3 -1 5 -18 5 -16 0 -22 -2 -12 -5z"/>
<path d="M1398 2423 c7 -3 16 -2 19 1 4 3 -2 6 -13 5 -11 0 -14 -3 -6 -6z"/>
<path d="M2645 2410 c-3 -6 1 -7 9 -4 18 7 21 14 7 14 -6 0 -13 -4 -16 -10z"/>
<path d="M2582 2384 c-12 -8 -22 -12 -22 -9 0 3 -10 0 -22 -7 -13 -7 -27 -12
-33 -13 -22 -1 -84 -37 -110 -65 l-27 -29 63 20 c35 11 73 28 84 38 11 10 43
33 70 50 28 17 43 31 35 31 -9 0 -26 -7 -38 -16z"/>
<path d="M4984 2371 c3 -5 70 -41 148 -81 79 -40 155 -81 169 -91 34 -24 165
-89 179 -89 7 0 -12 13 -41 28 -30 16 -128 69 -219 119 -221 120 -247 133
-236 114z"/>
<path d="M200 2306 c0 -16 269 -316 428 -478 90 -92 96 -96 121 -85 14 6 30
17 34 24 4 7 26 13 47 13 30 0 38 3 34 14 -8 22 8 25 50 11 35 -12 42 -12 62
4 17 14 20 21 11 30 -8 8 -7 11 7 11 14 0 17 5 13 22 -8 29 9 48 42 48 14 0
34 7 44 14 12 10 27 11 45 6 103 -31 173 -46 184 -39 10 7 10 9 -2 10 -8 1
-17 1 -21 1 -3 0 -11 8 -18 20 -11 18 -10 19 11 13 21 -6 283 -88 383 -120 22
-7 104 -32 182 -55 136 -41 144 -45 168 -81 14 -21 25 -43 25 -48 0 -6 6 -14
13 -18 6 -4 29 -33 49 -63 21 -30 50 -73 66 -95 15 -22 31 -48 35 -57 3 -10
10 -18 16 -18 9 0 81 -115 81 -131 0 -17 -20 -9 -21 9 -1 11 -4 8 -8 -8 -5
-18 -15 -26 -34 -28 -21 -3 -27 -9 -27 -28 0 -25 15 -33 23 -11 2 6 8 0 12
-15 8 -30 -10 -71 -28 -65 -7 2 -14 28 -17 58 l-5 54 -93 -2 c-60 -1 -103 -7
-124 -17 -17 -9 -56 -16 -86 -16 -61 0 -118 -22 -125 -49 -6 -23 -93 -41 -165
-34 -44 5 -51 3 -47 -9 6 -14 -8 -23 -67 -42 -10 -3 -18 -12 -18 -20 0 -9 -7
-12 -20 -9 -11 3 -20 8 -20 12 0 10 -100 34 -108 27 -3 -4 -1 -11 7 -15 7 -5
13 -12 14 -17 2 -11 59 -50 101 -69 29 -13 29 -14 4 -10 -14 2 -35 8 -46 14
-12 6 -32 15 -46 21 -21 8 -24 7 -19 -8 12 -33 44 -71 66 -78 12 -3 36 -17 54
-30 17 -13 34 -24 37 -24 3 0 54 -23 113 -51 197 -94 276 -130 453 -211 96
-44 213 -98 260 -120 47 -22 126 -58 175 -80 50 -22 108 -48 130 -58 96 -45
436 -190 445 -190 6 0 38 -11 73 -25 97 -40 120 -32 230 79 106 105 103 103
274 232 70 53 158 124 196 157 37 33 96 80 132 106 35 25 105 78 157 117 100
75 161 114 182 114 7 0 38 18 69 40 30 22 60 40 66 40 6 0 11 7 11 15 0 8 6
15 13 15 7 0 23 9 35 21 19 17 20 22 9 34 -8 7 -35 16 -61 18 -26 3 -50 8 -54
12 -4 3 -8 37 -10 74 -4 61 -7 70 -28 79 -42 20 -468 135 -507 138 -20 1 -44
7 -52 14 -8 6 -24 9 -37 5 -16 -4 -19 -3 -10 3 11 7 8 11 -11 16 -14 3 -32 9
-41 12 -11 4 -16 2 -14 -6 3 -13 -253 -200 -275 -200 -8 -1 -7 -4 3 -9 8 -5
33 -5 55 -1 22 4 30 8 18 9 -13 0 -23 5 -23 11 0 5 6 8 13 6 6 -2 33 -10 60
-16 26 -7 47 -17 47 -21 0 -5 20 -9 44 -9 30 0 46 -5 50 -15 4 -10 20 -15 54
-15 44 0 72 -12 72 -32 0 -4 -12 -8 -27 -9 -28 -1 -28 -1 4 -11 18 -6 33 -14
33 -17 0 -3 20 -5 45 -3 27 3 45 0 45 -6 0 -6 8 -13 18 -15 9 -2 -1 -3 -23 -1
-36 3 -37 2 -15 -7 14 -6 43 -11 65 -10 28 0 35 -3 25 -9 -12 -8 -9 -10 10
-11 14 -1 31 -2 38 -2 6 1 12 -2 12 -6 0 -3 18 -6 40 -6 22 0 40 3 40 7 0 5 5
8 12 8 6 0 3 -8 -7 -20 -9 -10 -27 -18 -38 -17 -11 1 -22 -5 -24 -13 -4 -13
-3 -13 6 0 5 8 13 12 16 8 3 -3 -60 -61 -141 -129 -387 -324 -468 -393 -592
-497 -80 -67 -138 -109 -146 -106 -8 3 -13 11 -10 18 3 7 -28 56 -68 109 -128
169 -140 187 -125 187 16 0 289 -110 297 -120 15 -17 52 6 191 120 84 69 216
176 294 239 177 144 172 139 154 145 -265 87 -892 289 -999 323 -80 25 -154
49 -165 54 -11 4 -64 22 -117 39 -54 17 -98 35 -98 39 0 4 5 12 11 18 7 7 -7
15 -48 26 -137 39 -230 75 -254 97 -14 14 -49 58 -78 97 -65 90 -100 117 -134
104 -14 -6 -28 -15 -32 -20 -3 -6 -16 -11 -28 -11 -18 0 -576 172 -1137 350
-102 33 -284 90 -405 128 -121 38 -230 74 -243 81 -18 10 -22 9 -22 -3z m2220
-816 c0 -5 -7 -10 -16 -10 -8 0 -12 5 -9 10 3 6 10 10 16 10 5 0 9 -4 9 -10z
m90 -30 c0 -5 -4 -10 -9 -10 -6 0 -13 5 -16 10 -3 6 1 10 9 10 9 0 16 -4 16
-10z m40 -70 c0 -13 -11 -13 -30 0 -12 8 -11 10 8 10 12 0 22 -4 22 -10z m95
-20 c3 -6 -1 -13 -10 -16 -19 -8 -30 0 -20 15 8 14 22 14 30 1z m105 -39 c0
-11 -26 -22 -34 -14 -12 12 -5 23 14 23 11 0 20 -4 20 -9z m100 -31 c12 -8 9
-10 -12 -10 -15 0 -30 5 -33 10 -8 13 25 13 45 0z m-275 -40 c-3 -5 -10 -10
-16 -10 -5 0 -9 5 -9 10 0 6 7 10 16 10 8 0 12 -4 9 -10z m100 -30 c-3 -5 -10
-10 -16 -10 -5 0 -9 5 -9 10 0 6 7 10 16 10 8 0 12 -4 9 -10z m100 -29 c10
-17 -11 -21 -31 -6 -18 14 -18 14 3 15 12 0 24 -4 28 -9z m105 -41 c0 -5 -7
-10 -16 -10 -8 0 -12 5 -9 10 3 6 10 10 16 10 5 0 9 -4 9 -10z m-260 -20 c0
-5 -4 -10 -10 -10 -5 0 -10 5 -10 10 0 6 5 10 10 10 6 0 10 -4 10 -10z m375
-20 c-3 -5 -13 -10 -21 -10 -8 0 -14 5 -14 10 0 6 9 10 21 10 11 0 17 -4 14
-10z m485 -30 c0 -5 -6 -10 -14 -10 -8 0 -18 5 -21 10 -3 6 3 10 14 10 12 0
21 -4 21 -10z m710 -5 c-7 -8 -17 -15 -23 -15 -6 0 -2 7 9 15 25 19 30 19 14
0z m-1090 -5 c0 -5 -4 -10 -9 -10 -6 0 -13 5 -16 10 -3 6 1 10 9 10 9 0 16 -4
16 -10z m-275 -10 c3 -5 -1 -10 -10 -10 -9 0 -13 5 -10 10 3 6 8 10 10 10 2 0
7 -4 10 -10z m775 -21 c0 -5 -9 -9 -20 -9 -22 0 -27 16 -7 23 15 5 27 -1 27
-14z m-380 -10 c0 -5 -7 -9 -15 -9 -15 0 -20 12 -9 23 8 8 24 -1 24 -14z
m-280 -9 c0 -5 -7 -10 -16 -10 -8 0 -12 5 -9 10 3 6 10 10 16 10 5 0 9 -4 9
-10z m392 -32 c-12 -12 -35 -1 -27 12 3 5 13 6 21 3 10 -4 12 -9 6 -15z m393
12 c8 -13 -15 -13 -35 0 -12 8 -11 10 7 10 12 0 25 -4 28 -10z m-985 -30 c0
-5 -5 -10 -11 -10 -5 0 -7 5 -4 10 3 6 8 10 11 10 2 0 4 -4 4 -10z m315 0 c-3
-5 -10 -10 -16 -10 -5 0 -9 5 -9 10 0 6 7 10 16 10 8 0 12 -4 9 -10z m240 -31
c-4 -5 -13 -9 -22 -9 -13 0 -13 3 -3 15 13 15 35 11 25 -6z m160 11 c-3 -5
-13 -10 -21 -10 -8 0 -12 5 -9 10 3 6 13 10 21 10 8 0 12 -4 9 -10z m-281 -9
c3 -5 -1 -12 -10 -15 -20 -8 -29 -1 -19 13 8 13 22 14 29 2z m456 5 c0 -3 -4
-8 -10 -11 -5 -3 -10 -1 -10 4 0 6 5 11 10 11 6 0 10 -2 10 -4z m448 -4 c-1
-5 -59 -55 -128 -112 -69 -57 -170 -142 -225 -189 -55 -47 -107 -90 -116 -95
-29 -20 55 56 166 149 61 51 153 129 205 173 98 83 104 88 98 74z m-1228 -16
c0 -3 -4 -8 -10 -11 -5 -3 -10 -1 -10 4 0 6 5 11 10 11 6 0 10 -2 10 -4z m730
-16 c0 -5 -5 -10 -11 -10 -5 0 -7 5 -4 10 3 6 8 10 11 10 2 0 4 -4 4 -10z
m-480 -10 c0 -5 -7 -10 -16 -10 -8 0 -12 5 -9 10 3 6 10 10 16 10 5 0 9 -4 9
-10z m190 -5 c0 -8 -7 -15 -15 -15 -16 0 -20 12 -8 23 11 12 23 8 23 -8z m134
6 c3 -5 -1 -11 -9 -15 -15 -6 -29 7 -18 18 9 9 21 8 27 -3z m-454 -9 c0 -13
-12 -22 -22 -16 -10 6 -1 24 13 24 5 0 9 -4 9 -8z m-150 -18 c0 -9 -5 -14 -12
-12 -18 6 -21 28 -4 28 9 0 16 -7 16 -16z m945 6 c3 -6 -1 -13 -10 -16 -19 -8
-30 0 -20 15 8 14 22 14 30 1z m-914 -23 c-13 -13 -26 -3 -16 12 3 6 11 8 17
5 6 -4 6 -10 -1 -17z m231 -19 c-6 -6 -15 -8 -19 -4 -4 4 -1 11 7 16 19 12 27
3 12 -12z m333 12 c-3 -5 -13 -10 -21 -10 -8 0 -14 5 -14 10 0 6 9 10 21 10
11 0 17 -4 14 -10z m-496 -21 c-16 -10 -23 -4 -14 10 3 6 11 8 17 5 6 -4 5 -9
-3 -15z m740 -35 c1 -2 0 -7 -3 -13 -4 -7 -19 -3 -41 9 -19 11 -35 18 -35 15
0 -2 -13 1 -30 6 -16 6 -28 15 -25 19 4 6 118 -24 134 -36z m-689 26 c0 -5 -7
-10 -15 -10 -8 0 -15 5 -15 10 0 6 7 10 15 10 8 0 15 -4 15 -10z m240 -21 c0
-11 -27 -12 -34 0 -3 4 -3 11 0 14 8 8 34 -3 34 -14z m135 12 c7 -12 -12 -24
-25 -16 -11 7 -4 25 10 25 5 0 11 -4 15 -9z m-305 -21 c0 -5 -4 -10 -10 -10
-5 0 -10 5 -10 10 0 6 5 10 10 10 6 0 10 -4 10 -10z m-130 -10 c0 -5 -4 -10
-10 -10 -5 0 -10 5 -10 10 0 6 5 10 10 10 6 0 10 -4 10 -10z m178 -2 c-6 -18
-28 -21 -28 -4 0 9 7 16 16 16 9 0 14 -5 12 -12z m247 -18 c3 -6 -1 -13 -10
-16 -19 -8 -30 0 -20 15 8 14 22 14 30 1z m-165 -10 c0 -5 -7 -10 -16 -10 -8
0 -12 5 -9 10 3 6 10 10 16 10 5 0 9 -4 9 -10z m45 -20 c-3 -5 -13 -10 -21
-10 -8 0 -14 5 -14 10 0 6 9 10 21 10 11 0 17 -4 14 -10z m333 -8 c15 -10 6
-42 -12 -42 -6 0 -17 4 -25 9 -12 8 -12 12 -2 25 15 18 21 19 39 8z m-258 -22
c0 -5 -4 -10 -10 -10 -5 0 -10 5 -10 10 0 6 5 10 10 10 6 0 10 -4 10 -10z m45
-20 c-3 -5 -11 -10 -16 -10 -6 0 -7 5 -4 10 3 6 11 10 16 10 6 0 7 -4 4 -10z
m-345 -20 c0 -5 -7 -10 -15 -10 -8 0 -15 5 -15 10 0 6 7 10 15 10 8 0 15 -4
15 -10z m430 -10 c0 -5 -7 -10 -16 -10 -8 0 -12 5 -9 10 3 6 10 10 16 10 5 0
9 -4 9 -10z m50 -20 c0 -5 -2 -10 -4 -10 -3 0 -8 5 -11 10 -3 6 -1 10 4 10 6
0 11 -4 11 -10z m-366 -9 c3 -4 3 -11 0 -14 -8 -8 -34 3 -34 14 0 11 27 12 34
0z m321 -32 c-8 -12 -35 -12 -35 0 0 11 22 20 33 14 4 -2 5 -9 2 -14z m-211
-15 c9 -3 14 -10 11 -15 -7 -10 -35 0 -35 12 0 11 3 11 24 3z m126 -24 c8 -5
12 -12 8 -15 -9 -9 -48 4 -48 16 0 12 21 11 40 -1z m235 -30 c-9 -15 -306
-263 -309 -258 -3 3 304 266 312 267 2 1 0 -4 -3 -9z m-660 -211 c22 -10 29
-16 15 -13 -28 7 -80 33 -65 33 6 0 28 -9 50 -20z m80 -39 c3 -5 2 -10 -4 -10
-5 0 -13 5 -16 10 -3 6 -2 10 4 10 5 0 13 -4 16 -10z m117 -25 c36 -15 59 -35
39 -35 -23 0 -121 42 -121 52 0 12 29 6 82 -17z"/>
<path d="M2155 2271 c-3 -6 -18 -11 -31 -11 -16 0 -24 -5 -21 -12 2 -7 14 -13
27 -12 20 1 21 -1 7 -11 -14 -10 -14 -14 2 -38 18 -27 18 -27 36 -7 24 27 31
18 10 -14 -16 -25 -16 -26 1 -25 11 0 55 13 99 27 74 25 80 29 77 52 -5 35 -7
35 -40 11 -36 -25 -40 -26 -44 -5 -2 14 -8 13 -34 -9 l-32 -27 -7 23 c-4 12
-7 25 -6 28 1 14 -37 40 -44 30z m14 -77 c-6 -7 -15 -11 -20 -8 -5 3 -3 11 4
18 16 18 31 8 16 -10z"/>
<path d="M1681 2226 c2 -3 42 -12 89 -20 167 -32 200 -39 200 -48 0 -4 -6 -9
-12 -9 -7 -1 12 -5 42 -9 30 -3 69 -3 85 0 25 6 13 10 -70 29 -55 13 -134 32
-177 42 -67 17 -169 26 -157 15z"/>
<path d="M2405 2190 c-7 -12 22 -12 50 0 17 7 15 9 -12 9 -17 1 -35 -3 -38 -9z"/>
<path d="M935 2100 c27 -12 43 -12 25 0 -8 5 -22 9 -30 9 -10 0 -8 -3 5 -9z"/>
<path d="M1065 2090 c-3 -6 -25 -8 -48 -5 -39 5 -40 4 -12 -5 33 -11 75 -5 75
10 0 13 -7 13 -15 0z"/>
<path d="M5650 2056 c0 -9 -5 -16 -11 -16 -6 0 -9 -6 -6 -12 2 -7 -3 -18 -11
-24 -13 -9 -12 -12 7 -17 16 -4 29 2 48 24 15 16 33 29 42 29 25 0 -1 17 -36
25 -26 5 -33 3 -33 -9z"/>
<path d="M5470 2005 c-19 -14 -30 -25 -26 -25 10 0 76 40 76 46 0 10 -19 2
-50 -21z"/>
<path d="M5284 1995 c-15 -11 -16 -14 -3 -15 8 0 24 7 35 15 15 11 16 14 3 15
-8 0 -24 -7 -35 -15z"/>
<path d="M5569 1983 c-13 -15 -12 -15 9 -4 23 12 28 21 13 21 -5 0 -15 -7 -22
-17z"/>
<path d="M5620 1943 c-14 -11 -45 -32 -70 -47 -40 -24 -41 -26 -15 -20 17 3
38 8 48 11 9 2 17 0 17 -6 0 -19 56 -12 76 10 16 17 16 22 4 29 -8 6 -18 10
-22 10 -3 0 -8 7 -10 16 -3 14 -6 14 -28 -3z"/>
<path d="M1018 1823 c7 -3 16 -2 19 1 4 3 -2 6 -13 5 -11 0 -14 -3 -6 -6z"/>
<path d="M5193 1667 c-226 -151 -261 -178 -173 -130 30 17 80 36 110 43 62 15
149 76 195 137 16 21 42 50 59 65 17 15 29 27 26 27 -3 0 -100 -64 -217 -142z"/>
<path d="M5900 1805 c0 -3 4 -13 9 -23 5 -9 15 -32 21 -49 22 -59 35 -27 15
36 -6 19 -45 50 -45 36z"/>
<path d="M3609 1759 l-24 -22 27 7 c39 9 78 25 78 31 0 14 -60 2 -81 -16z"/>
<path d="M2560 1750 c-10 -7 -4 -8 20 -4 31 5 37 3 47 -19 9 -19 27 -30 75
-44 59 -17 63 -21 63 -48 l0 -30 74 3 c111 5 289 -32 323 -66 8 -8 -10 -6
-112 12 l-35 6 40 -15 c63 -24 85 -37 85 -52 0 -9 -5 -11 -12 -7 -7 4 -10 3
-5 -1 9 -10 48 -15 61 -7 4 2 2 9 -5 14 -10 7 -8 8 6 4 13 -4 40 7 77 32 l58
38 -148 43 c-81 23 -162 44 -181 46 -18 2 -39 10 -47 16 -8 6 -23 9 -34 6 -11
-3 -18 -1 -14 4 5 9 -23 14 -59 11 -11 -1 -16 2 -11 10 5 8 0 9 -14 6 -12 -4
-22 -3 -22 2 0 7 -34 10 -118 13 -26 0 -30 2 -16 10 13 8 14 11 3 18 -19 12
-80 11 -99 -1z m150 -50 c18 -12 2 -12 -25 0 -13 6 -15 9 -5 9 8 0 22 -4 30
-9z m460 -104 c0 -2 -11 -6 -25 -8 -13 -3 -22 -1 -19 3 5 9 44 13 44 5z"/>
<path d="M2514 1724 c-18 -14 -18 -15 4 -4 12 6 22 13 22 15 0 8 -5 6 -26 -11z"/>
<path d="M3594 1704 c-18 -14 -18 -15 6 -7 14 4 46 8 72 8 25 0 41 3 35 7 -21
13 -93 8 -113 -8z"/>
<path d="M3567 1664 c-17 -17 -3 -24 48 -24 31 0 72 -7 93 -16 20 -8 53 -17
72 -19 19 -2 58 -6 85 -9 l50 -6 -60 21 c-99 33 -275 66 -288 53z"/>
<path d="M3240 1454 c-60 -40 -94 -69 -45 -39 82 50 115 75 102 75 -1 0 -27
-16 -57 -36z"/>
<path d="M3315 1480 c4 -6 11 -8 16 -5 14 9 11 15 -7 15 -8 0 -12 -5 -9 -10z"/>
<path d="M3082 1425 c-34 -25 -62 -47 -62 -49 0 -4 127 77 138 88 3 3 1 6 -4
6 -6 0 -38 -20 -72 -45z"/>
<path d="M3250 1434 c-60 -40 -94 -69 -45 -39 82 50 115 75 102 75 -1 0 -27
-16 -57 -36z"/>
<path d="M4658 1384 c-16 -8 -28 -17 -28 -19 0 -11 19 -4 41 15 29 23 24 25
-13 4z"/>
<path d="M3140 1386 c0 -2 7 -7 16 -10 8 -3 12 -2 9 4 -6 10 -25 14 -25 6z"/>
<path d="M2190 1356 c0 -9 7 -16 16 -16 17 0 14 22 -4 28 -7 2 -12 -3 -12 -12z"/>
<path d="M3538 1233 c7 -3 16 -2 19 1 4 3 -2 6 -13 5 -11 0 -14 -3 -6 -6z"/>
<path d="M3478 1223 c7 -3 16 -2 19 1 4 3 -2 6 -13 5 -11 0 -14 -3 -6 -6z"/>
<path d="M3518 1218 c5 -5 16 -8 23 -6 8 3 3 7 -10 11 -17 4 -21 3 -13 -5z"/>
<path d="M3893 879 c-149 -124 -239 -204 -167 -148 77 59 325 262 330 270 13
21 -14 1 -163 -122z"/>
<path d="M3620 648 l-65 -60 65 53 c36 29 67 54 69 56 2 2 2 5 0 7 -2 3 -34
-22 -69 -56z"/>
<path d="M3500 549 l-45 -41 42 32 c37 27 61 51 51 50 -2 0 -23 -19 -48 -41z"/>
<path d="M3424 488 l-19 -23 23 19 c12 11 22 21 22 23 0 8 -8 2 -26 -19z"/>
<path d="M3284 424 l-39 -35 43 32 c38 30 48 39 39 39 -2 0 -21 -16 -43 -36z"/>
</g>
</svg>
